<svg width="192" height="192" viewBox="0 0 192 192" fill="none" xmlns="http://www.w3.org/2000/svg">
<rect width="192" height="192" fill="#008BE3"/>
<path d="M96.001 36C81.6205 35.9996 67.7181 40.6425 56.8257 49.0832C45.9333 57.524 38.7754 69.2011 36.6556 81.988C34.5358 94.7748 37.595 107.821 45.2762 118.75C52.9574 129.68 64.7496 137.765 78.5052 141.535C79.0842 141.693 79.7096 141.639 80.2438 141.383C80.778 141.127 81.1773 140.691 81.3538 140.17C81.5303 139.65 81.4697 139.088 81.1851 138.607C80.9005 138.127 80.4154 137.768 79.8365 137.61C70.0027 134.923 61.1924 129.834 54.3887 122.909C47.585 115.983 43.0553 107.495 41.3051 98.3901C39.5549 89.2854 40.653 79.9226 44.4769 71.3462C48.3008 62.7699 54.7002 55.3173 62.9609 49.82C71.2216 44.3228 81.0189 40.997 91.2596 40.2137C101.5 39.4305 111.782 41.2206 120.957 45.3843C130.132 49.5481 137.839 55.9217 143.22 63.7941C148.6 71.6664 151.442 80.7279 151.428 89.9676C151.382 100.712 147.496 111.16 140.342 119.767C133.189 128.375 123.147 134.688 111.698 137.773C111.173 137.914 110.723 138.219 110.428 138.634C110.132 139.048 110.013 139.544 110.091 140.031C110.169 140.518 110.439 140.964 110.851 141.287C111.264 141.61 111.792 141.789 112.34 141.791C112.56 141.791 112.779 141.762 112.989 141.706C125.262 138.419 136.056 131.711 143.813 122.55C151.757 113.193 156.041 101.739 156 89.9676C155.991 75.6618 149.668 61.9436 138.419 51.8251C127.17 41.7067 111.914 36.0151 96.001 36Z" fill="#EFEFEF"/>
<path d="M96.0051 95.4596C98.6066 95.4596 101.15 94.766 103.313 93.4667C105.476 92.1673 107.162 90.3205 108.157 88.1598C109.153 85.9991 109.413 83.6214 108.906 81.3276C108.398 79.0338 107.145 76.9268 105.306 75.273C103.466 73.6193 101.123 72.4931 98.5711 72.0368C96.0196 71.5805 93.375 71.8147 90.9715 72.7097C88.568 73.6047 86.5136 75.1204 85.0683 77.065C83.623 79.0096 82.8516 81.2958 82.8516 83.6346C82.8537 86.7702 84.2402 89.7768 86.7065 91.994C89.1728 94.2112 92.5172 95.4577 96.0051 95.4596ZM102.027 76.9385C102.665 76.9385 103.288 77.1085 103.819 77.4271C104.349 77.7457 104.762 78.1985 105.007 78.7282C105.251 79.258 105.315 79.841 105.19 80.4034C105.066 80.9658 104.759 81.4824 104.308 81.8878C103.857 82.2933 103.282 82.5694 102.656 82.6813C102.031 82.7932 101.382 82.7358 100.793 82.5163C100.204 82.2969 99.7 81.9253 99.3456 81.4485C98.9912 80.9717 98.8021 80.4112 98.8021 79.8378C98.8021 79.0688 99.1419 78.3314 99.7467 77.7877C100.352 77.2439 101.172 76.9385 102.027 76.9385Z" fill="#EFEFEF"/>
<path d="M128.626 94.9545C132.968 94.0997 138.863 94.9545 141.446 96.3151C141.925 96.5651 142.488 96.6502 143.032 96.5546C143.575 96.4589 144.061 96.189 144.399 95.7951C144.738 95.4012 144.905 94.9102 144.871 94.4135C144.836 93.9168 144.602 93.4483 144.212 93.0953L97.6358 50.3543C97.4212 50.1626 97.1665 50.011 96.8863 49.9083C96.6062 49.8055 96.3062 49.7538 96.0036 49.7559C95.4083 49.7598 94.8387 49.9748 94.4188 50.3543L47.8429 93.0953C47.4528 93.4483 47.2186 93.9168 47.1841 94.4135C47.1496 94.9102 47.3172 95.4012 47.6555 95.7951C47.9938 96.189 48.4798 96.4589 49.0231 96.5546C49.5663 96.6502 50.1297 96.5651 50.6083 96.3151C53.1835 94.983 59.0867 94.0997 63.4289 94.9545C78.3811 97.9108 90.2905 121.148 93.777 154.158C93.8346 154.663 94.0985 155.131 94.5179 155.472C94.9372 155.812 95.4822 156 96.0471 156C96.6121 156 97.157 155.812 97.5764 155.472C97.9957 155.131 98.2597 154.663 98.3173 154.158C101.764 121.126 113.674 97.8894 128.626 94.9545ZM96.0036 54.7281L106.661 64.4588C99.665 63.0627 92.4134 63.0627 85.4174 64.4588L96.0036 54.7281ZM73.1198 94.5129C70.4986 92.8064 67.5201 91.5948 64.364 90.9511C62.8007 90.6567 61.2069 90.5134 59.6097 90.5237C58.7143 90.5237 57.8031 90.5593 56.884 90.6377L73.2148 75.6783C76.1628 72.9562 79.679 70.7837 83.5623 69.2851C87.4455 67.7865 91.6195 66.9912 95.8451 66.9449H96.1858C100.411 66.9924 104.585 67.7881 108.468 69.2867C112.351 70.7852 115.867 72.9572 118.816 75.6783L135.139 90.6377C132.64 90.4006 130.115 90.5063 127.651 90.9511C124.51 91.6019 121.546 92.8131 118.935 94.5129C116.225 96.1357 113.264 97.391 110.148 98.2384C100.994 100.945 91.1163 100.945 81.9626 98.2384C78.8255 97.3884 75.8457 96.1257 73.1198 94.4915V94.5129ZM96.0036 138.814C92.739 122.672 87.541 109.608 81.3208 101.971C90.8788 104.688 101.136 104.688 110.694 101.971C104.474 109.615 99.2761 122.651 96.0036 138.793V138.814Z" fill="#EFEFEF"/>
</svg>
